<mxfile host="app.diagrams.net" modified="2023-05-25T19:33:45.408Z" agent="Mozilla/5.0 (Windows NT 10.0; Win64; x64) AppleWebKit/537.36 (KHTML, like Gecko) Chrome/113.0.0.0 Safari/537.36 Edg/113.0.1774.50" etag="tuIFA42H0YDQlPOc6upP" version="21.3.4" type="github">
  <diagram id="C5RBs43oDa-KdzZeNtuy" name="Page-1">
    <mxGraphModel dx="1236" dy="615" grid="0" gridSize="10" guides="1" tooltips="1" connect="1" arrows="1" fold="1" page="1" pageScale="1" pageWidth="827" pageHeight="1169" background="#d94a4a" math="0" shadow="1">
      <root>
        <mxCell id="WIyWlLk6GJQsqaUBKTNV-0" />
        <mxCell id="WIyWlLk6GJQsqaUBKTNV-1" parent="WIyWlLk6GJQsqaUBKTNV-0" />
        <mxCell id="_RlcLhCDF2WWXcxiN_YF-39" value="" style="edgeStyle=orthogonalEdgeStyle;rounded=0;orthogonalLoop=1;jettySize=auto;html=1;" edge="1" parent="WIyWlLk6GJQsqaUBKTNV-1" source="WIyWlLk6GJQsqaUBKTNV-3" target="_RlcLhCDF2WWXcxiN_YF-38">
          <mxGeometry relative="1" as="geometry" />
        </mxCell>
        <mxCell id="WIyWlLk6GJQsqaUBKTNV-3" value="START" style="rounded=1;whiteSpace=wrap;html=1;fontSize=12;glass=0;strokeWidth=1;shadow=0;" parent="WIyWlLk6GJQsqaUBKTNV-1" vertex="1">
          <mxGeometry x="160" y="80" width="120" height="40" as="geometry" />
        </mxCell>
        <mxCell id="_RlcLhCDF2WWXcxiN_YF-41" value="" style="edgeStyle=orthogonalEdgeStyle;rounded=0;orthogonalLoop=1;jettySize=auto;html=1;" edge="1" parent="WIyWlLk6GJQsqaUBKTNV-1" source="_RlcLhCDF2WWXcxiN_YF-38" target="_RlcLhCDF2WWXcxiN_YF-40">
          <mxGeometry relative="1" as="geometry" />
        </mxCell>
        <mxCell id="_RlcLhCDF2WWXcxiN_YF-38" value="The user and computer should each get 2 random cards." style="rounded=1;whiteSpace=wrap;html=1;glass=0;strokeWidth=1;shadow=0;" vertex="1" parent="WIyWlLk6GJQsqaUBKTNV-1">
          <mxGeometry x="160" y="150" width="120" height="60" as="geometry" />
        </mxCell>
        <mxCell id="_RlcLhCDF2WWXcxiN_YF-43" value="" style="edgeStyle=orthogonalEdgeStyle;rounded=0;orthogonalLoop=1;jettySize=auto;html=1;" edge="1" parent="WIyWlLk6GJQsqaUBKTNV-1" source="_RlcLhCDF2WWXcxiN_YF-40" target="_RlcLhCDF2WWXcxiN_YF-42">
          <mxGeometry relative="1" as="geometry" />
        </mxCell>
        <mxCell id="_RlcLhCDF2WWXcxiN_YF-40" value="Add up the user&#39;s and the computer&#39;s score" style="rounded=1;whiteSpace=wrap;html=1;glass=0;strokeWidth=1;shadow=0;" vertex="1" parent="WIyWlLk6GJQsqaUBKTNV-1">
          <mxGeometry x="160" y="238" width="120" height="60" as="geometry" />
        </mxCell>
        <mxCell id="_RlcLhCDF2WWXcxiN_YF-46" value="" style="edgeStyle=orthogonalEdgeStyle;rounded=0;orthogonalLoop=1;jettySize=auto;html=1;" edge="1" parent="WIyWlLk6GJQsqaUBKTNV-1" source="_RlcLhCDF2WWXcxiN_YF-42" target="_RlcLhCDF2WWXcxiN_YF-44">
          <mxGeometry relative="1" as="geometry">
            <Array as="points">
              <mxPoint x="338" y="356" />
              <mxPoint x="338" y="309" />
            </Array>
          </mxGeometry>
        </mxCell>
        <mxCell id="_RlcLhCDF2WWXcxiN_YF-54" style="edgeStyle=orthogonalEdgeStyle;rounded=0;orthogonalLoop=1;jettySize=auto;html=1;" edge="1" parent="WIyWlLk6GJQsqaUBKTNV-1" source="_RlcLhCDF2WWXcxiN_YF-42" target="_RlcLhCDF2WWXcxiN_YF-47">
          <mxGeometry relative="1" as="geometry" />
        </mxCell>
        <mxCell id="_RlcLhCDF2WWXcxiN_YF-58" value="" style="edgeStyle=orthogonalEdgeStyle;rounded=0;orthogonalLoop=1;jettySize=auto;html=1;" edge="1" parent="WIyWlLk6GJQsqaUBKTNV-1" source="_RlcLhCDF2WWXcxiN_YF-42" target="_RlcLhCDF2WWXcxiN_YF-57">
          <mxGeometry relative="1" as="geometry" />
        </mxCell>
        <mxCell id="_RlcLhCDF2WWXcxiN_YF-42" value="Does the user or computer have a blackjack? (ace + 10)" style="rounded=1;whiteSpace=wrap;html=1;glass=0;strokeWidth=1;shadow=0;" vertex="1" parent="WIyWlLk6GJQsqaUBKTNV-1">
          <mxGeometry x="160" y="326" width="120" height="60" as="geometry" />
        </mxCell>
        <mxCell id="_RlcLhCDF2WWXcxiN_YF-44" value="Win" style="rounded=1;whiteSpace=wrap;html=1;glass=0;strokeWidth=1;shadow=0;" vertex="1" parent="WIyWlLk6GJQsqaUBKTNV-1">
          <mxGeometry x="397" y="294" width="120" height="30" as="geometry" />
        </mxCell>
        <mxCell id="_RlcLhCDF2WWXcxiN_YF-47" value="Lose" style="rounded=0;whiteSpace=wrap;html=1;" vertex="1" parent="WIyWlLk6GJQsqaUBKTNV-1">
          <mxGeometry x="397" y="366" width="120" height="35" as="geometry" />
        </mxCell>
        <mxCell id="_RlcLhCDF2WWXcxiN_YF-55" value="User has 21" style="text;html=1;strokeColor=none;fillColor=none;align=center;verticalAlign=middle;whiteSpace=wrap;rounded=0;" vertex="1" parent="WIyWlLk6GJQsqaUBKTNV-1">
          <mxGeometry x="335" y="276" width="60" height="30" as="geometry" />
        </mxCell>
        <mxCell id="_RlcLhCDF2WWXcxiN_YF-56" value="Computer has 21" style="text;html=1;strokeColor=none;fillColor=none;align=center;verticalAlign=middle;whiteSpace=wrap;rounded=0;" vertex="1" parent="WIyWlLk6GJQsqaUBKTNV-1">
          <mxGeometry x="332" y="383" width="60" height="30" as="geometry" />
        </mxCell>
        <mxCell id="_RlcLhCDF2WWXcxiN_YF-60" value="" style="edgeStyle=orthogonalEdgeStyle;rounded=0;orthogonalLoop=1;jettySize=auto;html=1;" edge="1" parent="WIyWlLk6GJQsqaUBKTNV-1" source="_RlcLhCDF2WWXcxiN_YF-57" target="_RlcLhCDF2WWXcxiN_YF-59">
          <mxGeometry relative="1" as="geometry" />
        </mxCell>
        <mxCell id="_RlcLhCDF2WWXcxiN_YF-72" value="" style="edgeStyle=orthogonalEdgeStyle;rounded=0;orthogonalLoop=1;jettySize=auto;html=1;" edge="1" parent="WIyWlLk6GJQsqaUBKTNV-1" source="_RlcLhCDF2WWXcxiN_YF-57" target="_RlcLhCDF2WWXcxiN_YF-71">
          <mxGeometry relative="1" as="geometry" />
        </mxCell>
        <mxCell id="_RlcLhCDF2WWXcxiN_YF-57" value="Is user&#39;s score &lt;br&gt;over 21?" style="rhombus;whiteSpace=wrap;html=1;rounded=1;glass=0;strokeWidth=1;shadow=0;" vertex="1" parent="WIyWlLk6GJQsqaUBKTNV-1">
          <mxGeometry x="155.5" y="445" width="129" height="101" as="geometry" />
        </mxCell>
        <mxCell id="_RlcLhCDF2WWXcxiN_YF-64" value="" style="edgeStyle=orthogonalEdgeStyle;rounded=0;orthogonalLoop=1;jettySize=auto;html=1;" edge="1" parent="WIyWlLk6GJQsqaUBKTNV-1" source="_RlcLhCDF2WWXcxiN_YF-59" target="_RlcLhCDF2WWXcxiN_YF-63">
          <mxGeometry relative="1" as="geometry" />
        </mxCell>
        <mxCell id="_RlcLhCDF2WWXcxiN_YF-68" style="edgeStyle=orthogonalEdgeStyle;rounded=0;orthogonalLoop=1;jettySize=auto;html=1;exitX=1;exitY=0;exitDx=0;exitDy=0;" edge="1" parent="WIyWlLk6GJQsqaUBKTNV-1" source="_RlcLhCDF2WWXcxiN_YF-59" target="_RlcLhCDF2WWXcxiN_YF-65">
          <mxGeometry relative="1" as="geometry" />
        </mxCell>
        <mxCell id="_RlcLhCDF2WWXcxiN_YF-59" value="Do they have an &lt;br&gt;&quot;Ace&quot;?" style="rhombus;whiteSpace=wrap;html=1;rounded=1;glass=0;strokeWidth=1;shadow=0;" vertex="1" parent="WIyWlLk6GJQsqaUBKTNV-1">
          <mxGeometry x="365" y="445" width="129" height="101" as="geometry" />
        </mxCell>
        <mxCell id="_RlcLhCDF2WWXcxiN_YF-61" value="Yes" style="text;html=1;strokeColor=none;fillColor=none;align=center;verticalAlign=middle;whiteSpace=wrap;rounded=0;" vertex="1" parent="WIyWlLk6GJQsqaUBKTNV-1">
          <mxGeometry x="291" y="463.75" width="60" height="30" as="geometry" />
        </mxCell>
        <mxCell id="_RlcLhCDF2WWXcxiN_YF-62" value="No" style="text;html=1;strokeColor=none;fillColor=none;align=center;verticalAlign=middle;whiteSpace=wrap;rounded=0;" vertex="1" parent="WIyWlLk6GJQsqaUBKTNV-1">
          <mxGeometry x="171" y="403.25" width="60" height="30" as="geometry" />
        </mxCell>
        <mxCell id="_RlcLhCDF2WWXcxiN_YF-66" style="edgeStyle=orthogonalEdgeStyle;rounded=0;orthogonalLoop=1;jettySize=auto;html=1;entryX=1;entryY=0.5;entryDx=0;entryDy=0;" edge="1" parent="WIyWlLk6GJQsqaUBKTNV-1" source="_RlcLhCDF2WWXcxiN_YF-63" target="_RlcLhCDF2WWXcxiN_YF-65">
          <mxGeometry relative="1" as="geometry" />
        </mxCell>
        <mxCell id="_RlcLhCDF2WWXcxiN_YF-73" style="edgeStyle=orthogonalEdgeStyle;rounded=0;orthogonalLoop=1;jettySize=auto;html=1;entryX=0.819;entryY=0.332;entryDx=0;entryDy=0;entryPerimeter=0;" edge="1" parent="WIyWlLk6GJQsqaUBKTNV-1" source="_RlcLhCDF2WWXcxiN_YF-63" target="_RlcLhCDF2WWXcxiN_YF-71">
          <mxGeometry relative="1" as="geometry">
            <Array as="points">
              <mxPoint x="726" y="607" />
              <mxPoint x="287" y="607" />
            </Array>
          </mxGeometry>
        </mxCell>
        <mxCell id="_RlcLhCDF2WWXcxiN_YF-63" value="If the ace counts as a 1 instead of 11, are they still over 21?" style="shape=trapezoid;perimeter=trapezoidPerimeter;whiteSpace=wrap;html=1;fixedSize=1;rounded=1;glass=0;strokeWidth=1;shadow=0;" vertex="1" parent="WIyWlLk6GJQsqaUBKTNV-1">
          <mxGeometry x="642" y="465.25" width="167" height="60.5" as="geometry" />
        </mxCell>
        <mxCell id="_RlcLhCDF2WWXcxiN_YF-65" value="Lose" style="rounded=0;whiteSpace=wrap;html=1;" vertex="1" parent="WIyWlLk6GJQsqaUBKTNV-1">
          <mxGeometry x="567" y="418" width="98" height="27" as="geometry" />
        </mxCell>
        <mxCell id="_RlcLhCDF2WWXcxiN_YF-69" value="Yes" style="text;html=1;strokeColor=none;fillColor=none;align=center;verticalAlign=middle;whiteSpace=wrap;rounded=0;" vertex="1" parent="WIyWlLk6GJQsqaUBKTNV-1">
          <mxGeometry x="673" y="403.25" width="60" height="30" as="geometry" />
        </mxCell>
        <mxCell id="_RlcLhCDF2WWXcxiN_YF-70" value="No" style="text;html=1;strokeColor=none;fillColor=none;align=center;verticalAlign=middle;whiteSpace=wrap;rounded=0;" vertex="1" parent="WIyWlLk6GJQsqaUBKTNV-1">
          <mxGeometry x="475" y="443" width="60" height="30" as="geometry" />
        </mxCell>
        <mxCell id="_RlcLhCDF2WWXcxiN_YF-76" value="" style="edgeStyle=orthogonalEdgeStyle;rounded=0;orthogonalLoop=1;jettySize=auto;html=1;" edge="1" parent="WIyWlLk6GJQsqaUBKTNV-1" source="_RlcLhCDF2WWXcxiN_YF-71" target="_RlcLhCDF2WWXcxiN_YF-75">
          <mxGeometry relative="1" as="geometry">
            <Array as="points">
              <mxPoint x="367" y="660" />
              <mxPoint x="367" y="744" />
            </Array>
          </mxGeometry>
        </mxCell>
        <mxCell id="_RlcLhCDF2WWXcxiN_YF-79" value="" style="edgeStyle=orthogonalEdgeStyle;rounded=0;orthogonalLoop=1;jettySize=auto;html=1;" edge="1" parent="WIyWlLk6GJQsqaUBKTNV-1" source="_RlcLhCDF2WWXcxiN_YF-71" target="_RlcLhCDF2WWXcxiN_YF-78">
          <mxGeometry relative="1" as="geometry" />
        </mxCell>
        <mxCell id="_RlcLhCDF2WWXcxiN_YF-71" value="Ask the user if they &lt;br&gt;want to get an other card." style="rhombus;whiteSpace=wrap;html=1;rounded=1;glass=0;strokeWidth=1;shadow=0;" vertex="1" parent="WIyWlLk6GJQsqaUBKTNV-1">
          <mxGeometry x="115" y="605" width="210" height="106" as="geometry" />
        </mxCell>
        <mxCell id="_RlcLhCDF2WWXcxiN_YF-74" value="No" style="text;html=1;strokeColor=none;fillColor=none;align=center;verticalAlign=middle;whiteSpace=wrap;rounded=0;" vertex="1" parent="WIyWlLk6GJQsqaUBKTNV-1">
          <mxGeometry x="733" y="585" width="60" height="30" as="geometry" />
        </mxCell>
        <mxCell id="_RlcLhCDF2WWXcxiN_YF-95" style="edgeStyle=orthogonalEdgeStyle;rounded=0;orthogonalLoop=1;jettySize=auto;html=1;entryX=1;entryY=0.5;entryDx=0;entryDy=0;" edge="1" parent="WIyWlLk6GJQsqaUBKTNV-1" source="_RlcLhCDF2WWXcxiN_YF-75" target="_RlcLhCDF2WWXcxiN_YF-40">
          <mxGeometry relative="1" as="geometry">
            <Array as="points">
              <mxPoint x="816" y="744" />
              <mxPoint x="816" y="268" />
            </Array>
          </mxGeometry>
        </mxCell>
        <mxCell id="_RlcLhCDF2WWXcxiN_YF-75" value="Draw another card" style="whiteSpace=wrap;html=1;rounded=1;glass=0;strokeWidth=1;shadow=0;" vertex="1" parent="WIyWlLk6GJQsqaUBKTNV-1">
          <mxGeometry x="404" y="714" width="120" height="60" as="geometry" />
        </mxCell>
        <mxCell id="_RlcLhCDF2WWXcxiN_YF-77" value="Yes" style="text;html=1;strokeColor=none;fillColor=none;align=center;verticalAlign=middle;whiteSpace=wrap;rounded=0;" vertex="1" parent="WIyWlLk6GJQsqaUBKTNV-1">
          <mxGeometry x="317" y="638" width="60" height="30" as="geometry" />
        </mxCell>
        <mxCell id="_RlcLhCDF2WWXcxiN_YF-81" value="" style="edgeStyle=orthogonalEdgeStyle;rounded=0;orthogonalLoop=1;jettySize=auto;html=1;" edge="1" parent="WIyWlLk6GJQsqaUBKTNV-1" source="_RlcLhCDF2WWXcxiN_YF-78" target="_RlcLhCDF2WWXcxiN_YF-80">
          <mxGeometry relative="1" as="geometry" />
        </mxCell>
        <mxCell id="_RlcLhCDF2WWXcxiN_YF-78" value="Computer plays, if score is less than 17, keep drawing card." style="whiteSpace=wrap;html=1;rounded=1;glass=0;strokeWidth=1;shadow=0;" vertex="1" parent="WIyWlLk6GJQsqaUBKTNV-1">
          <mxGeometry x="160" y="754" width="120" height="60" as="geometry" />
        </mxCell>
        <mxCell id="_RlcLhCDF2WWXcxiN_YF-83" value="" style="edgeStyle=orthogonalEdgeStyle;rounded=0;orthogonalLoop=1;jettySize=auto;html=1;" edge="1" parent="WIyWlLk6GJQsqaUBKTNV-1" source="_RlcLhCDF2WWXcxiN_YF-80" target="_RlcLhCDF2WWXcxiN_YF-82">
          <mxGeometry relative="1" as="geometry" />
        </mxCell>
        <mxCell id="_RlcLhCDF2WWXcxiN_YF-86" value="" style="edgeStyle=orthogonalEdgeStyle;rounded=0;orthogonalLoop=1;jettySize=auto;html=1;" edge="1" parent="WIyWlLk6GJQsqaUBKTNV-1" source="_RlcLhCDF2WWXcxiN_YF-80" target="_RlcLhCDF2WWXcxiN_YF-85">
          <mxGeometry relative="1" as="geometry" />
        </mxCell>
        <mxCell id="_RlcLhCDF2WWXcxiN_YF-80" value="Has computer &lt;br&gt;gone over 21?" style="rhombus;whiteSpace=wrap;html=1;rounded=1;glass=0;strokeWidth=1;shadow=0;" vertex="1" parent="WIyWlLk6GJQsqaUBKTNV-1">
          <mxGeometry x="154.5" y="846" width="130" height="80" as="geometry" />
        </mxCell>
        <mxCell id="_RlcLhCDF2WWXcxiN_YF-82" value="Win" style="whiteSpace=wrap;html=1;rounded=1;glass=0;strokeWidth=1;shadow=0;" vertex="1" parent="WIyWlLk6GJQsqaUBKTNV-1">
          <mxGeometry x="332" y="870.5" width="96.5" height="31" as="geometry" />
        </mxCell>
        <mxCell id="_RlcLhCDF2WWXcxiN_YF-84" value="Yes" style="text;html=1;strokeColor=none;fillColor=none;align=center;verticalAlign=middle;whiteSpace=wrap;rounded=0;" vertex="1" parent="WIyWlLk6GJQsqaUBKTNV-1">
          <mxGeometry x="273.5" y="860" width="60" height="30" as="geometry" />
        </mxCell>
        <mxCell id="_RlcLhCDF2WWXcxiN_YF-88" value="" style="edgeStyle=orthogonalEdgeStyle;rounded=0;orthogonalLoop=1;jettySize=auto;html=1;" edge="1" parent="WIyWlLk6GJQsqaUBKTNV-1" source="_RlcLhCDF2WWXcxiN_YF-85" target="_RlcLhCDF2WWXcxiN_YF-87">
          <mxGeometry relative="1" as="geometry" />
        </mxCell>
        <mxCell id="_RlcLhCDF2WWXcxiN_YF-90" value="" style="edgeStyle=orthogonalEdgeStyle;rounded=0;orthogonalLoop=1;jettySize=auto;html=1;" edge="1" parent="WIyWlLk6GJQsqaUBKTNV-1" source="_RlcLhCDF2WWXcxiN_YF-85" target="_RlcLhCDF2WWXcxiN_YF-89">
          <mxGeometry relative="1" as="geometry" />
        </mxCell>
        <mxCell id="_RlcLhCDF2WWXcxiN_YF-93" value="" style="edgeStyle=orthogonalEdgeStyle;rounded=0;orthogonalLoop=1;jettySize=auto;html=1;" edge="1" parent="WIyWlLk6GJQsqaUBKTNV-1" source="_RlcLhCDF2WWXcxiN_YF-85" target="_RlcLhCDF2WWXcxiN_YF-92">
          <mxGeometry relative="1" as="geometry" />
        </mxCell>
        <mxCell id="_RlcLhCDF2WWXcxiN_YF-85" value="Compare user score &lt;br&gt;with computer score to &lt;br&gt;see if user &lt;br&gt;score is higher?" style="rhombus;whiteSpace=wrap;html=1;rounded=1;glass=0;strokeWidth=1;shadow=0;" vertex="1" parent="WIyWlLk6GJQsqaUBKTNV-1">
          <mxGeometry x="200" y="975" width="227" height="122" as="geometry" />
        </mxCell>
        <mxCell id="_RlcLhCDF2WWXcxiN_YF-87" value="Draw" style="whiteSpace=wrap;html=1;rounded=1;glass=0;strokeWidth=1;shadow=0;" vertex="1" parent="WIyWlLk6GJQsqaUBKTNV-1">
          <mxGeometry x="256.25" y="1119" width="114.5" height="34" as="geometry" />
        </mxCell>
        <mxCell id="_RlcLhCDF2WWXcxiN_YF-89" value="Lose" style="whiteSpace=wrap;html=1;rounded=1;glass=0;strokeWidth=1;shadow=0;" vertex="1" parent="WIyWlLk6GJQsqaUBKTNV-1">
          <mxGeometry x="517" y="1019" width="105.5" height="34" as="geometry" />
        </mxCell>
        <mxCell id="_RlcLhCDF2WWXcxiN_YF-91" value="User Score&lt;br&gt;Lowe" style="text;html=1;strokeColor=none;fillColor=none;align=center;verticalAlign=middle;whiteSpace=wrap;rounded=0;" vertex="1" parent="WIyWlLk6GJQsqaUBKTNV-1">
          <mxGeometry x="425" y="1021" width="78" height="30" as="geometry" />
        </mxCell>
        <mxCell id="_RlcLhCDF2WWXcxiN_YF-92" value="Win" style="whiteSpace=wrap;html=1;rounded=1;glass=0;strokeWidth=1;shadow=0;" vertex="1" parent="WIyWlLk6GJQsqaUBKTNV-1">
          <mxGeometry x="39" y="1023.5" width="80.5" height="25" as="geometry" />
        </mxCell>
        <mxCell id="_RlcLhCDF2WWXcxiN_YF-94" value="User score &lt;br&gt;&lt;br&gt;higher" style="text;html=1;strokeColor=none;fillColor=none;align=center;verticalAlign=middle;whiteSpace=wrap;rounded=0;" vertex="1" parent="WIyWlLk6GJQsqaUBKTNV-1">
          <mxGeometry x="106" y="1008" width="125" height="56" as="geometry" />
        </mxCell>
      </root>
    </mxGraphModel>
  </diagram>
</mxfile>
